<?xml version="1.0" encoding="UTF-8"?>
<!DOCTYPE svg PUBLIC "-//W3C//DTD SVG 1.1//EN" "http://www.w3.org/Graphics/SVG/1.1/DTD/svg11.dtd">
<svg xmlns="http://www.w3.org/2000/svg" version="1.1" width="500px" height="500px" style="shape-rendering:geometricPrecision; text-rendering:geometricPrecision; image-rendering:optimizeQuality; fill-rule:evenodd; clip-rule:evenodd" xmlns:xlink="http://www.w3.org/1999/xlink">
<g><path style="opacity:0.994" fill="#020202" d="M 137.5,93.5 C 137.427,95.0269 138.094,96.0269 139.5,96.5C 143.399,101.284 147.066,106.284 150.5,111.5C 150.427,113.027 151.094,114.027 152.5,114.5C 152.427,116.027 153.094,117.027 154.5,117.5C 154.427,119.027 155.094,120.027 156.5,120.5C 157.5,120.833 158.167,121.5 158.5,122.5C 158.285,124.179 158.952,125.179 160.5,125.5C 160.427,127.027 161.094,128.027 162.5,128.5C 162.427,130.027 163.094,131.027 164.5,131.5C 164.738,133.404 165.738,134.738 167.5,135.5C 167.427,137.027 168.094,138.027 169.5,138.5C 171.878,140.878 173.878,143.545 175.5,146.5C 175.427,148.027 176.094,149.027 177.5,149.5C 190.213,166.215 202.547,183.215 214.5,200.5C 214.427,202.027 215.094,203.027 216.5,203.5C 216.427,205.027 217.094,206.027 218.5,206.5C 221.276,208.052 222.443,210.386 222,213.5C 214.794,226.082 206.96,238.249 198.5,250C 197.004,250.507 195.837,250.007 195,248.5C 192.228,244.612 189.728,240.612 187.5,236.5C 187.144,234.81 186.144,233.81 184.5,233.5C 181.179,228.871 177.846,224.204 174.5,219.5C 174.446,217.368 173.446,216.035 171.5,215.5C 171.446,213.368 170.446,212.035 168.5,211.5C 166.322,209.142 164.655,206.475 163.5,203.5C 163.144,201.81 162.144,200.81 160.5,200.5C 153.836,191.175 147.169,181.842 140.5,172.5C 140.446,170.368 139.446,169.035 137.5,168.5C 136.449,167.778 135.782,166.778 135.5,165.5C 135.573,163.973 134.906,162.973 133.5,162.5C 133.217,161.711 132.717,161.044 132,160.5C 131.5,242.166 131.333,323.833 131.5,405.5C 116.167,405.5 100.833,405.5 85.5,405.5C 85.5,301.5 85.5,197.5 85.5,93.5C 102.833,93.5 120.167,93.5 137.5,93.5 Z"/></g>
<g><path style="opacity:0.992" fill="#020202" d="M 361.5,93.5 C 378.833,93.5 396.167,93.5 413.5,93.5C 413.5,197.5 413.5,301.5 413.5,405.5C 398.167,405.5 382.833,405.5 367.5,405.5C 367.667,323.833 367.5,242.166 367,160.5C 366.283,161.044 365.783,161.711 365.5,162.5C 364.559,164.772 363.226,166.772 361.5,168.5C 359.554,169.035 358.554,170.368 358.5,172.5C 351.134,182.857 343.801,193.19 336.5,203.5C 334.856,203.81 333.856,204.81 333.5,206.5C 332.331,209.511 330.664,212.178 328.5,214.5C 327.5,214.5 326.5,214.5 325.5,214.5C 325.371,216.216 325.038,217.883 324.5,219.5C 317.562,230.377 309.895,240.71 301.5,250.5C 292.554,238.12 284.221,225.287 276.5,212C 278.311,208.369 280.644,205.202 283.5,202.5C 284.906,202.027 285.573,201.027 285.5,199.5C 291.356,190.441 297.69,181.774 304.5,173.5C 305.906,173.027 306.573,172.027 306.5,170.5C 307.906,170.027 308.573,169.027 308.5,167.5C 312.462,161.209 316.795,155.209 321.5,149.5C 323.759,148.656 324.759,146.989 324.5,144.5C 326.167,142.5 327.833,140.5 329.5,138.5C 330.906,138.027 331.573,137.027 331.5,135.5C 332.122,133.878 333.122,132.545 334.5,131.5C 336.262,130.738 337.262,129.404 337.5,127.5C 337.328,126.508 337.662,125.842 338.5,125.5C 340.446,124.965 341.446,123.632 341.5,121.5C 341.5,120.833 341.833,120.5 342.5,120.5C 343.906,120.027 344.573,119.027 344.5,117.5C 344.5,116.833 344.833,116.5 345.5,116.5C 346.906,116.027 347.573,115.027 347.5,113.5C 351.785,106.552 356.451,99.8849 361.5,93.5 Z"/></g>
<g><path style="opacity:0.58" fill="#7f7f7f" d="M 137.5,93.5 C 138.906,93.9731 139.573,94.9731 139.5,96.5C 138.094,96.0269 137.427,95.0269 137.5,93.5 Z"/></g>
<g><path style="opacity:0.267" fill="#858585" d="M 150.5,111.5 C 151.906,111.973 152.573,112.973 152.5,114.5C 151.094,114.027 150.427,113.027 150.5,111.5 Z"/></g>
<g><path style="opacity:0.369" fill="#7a7a7a" d="M 347.5,113.5 C 347.573,115.027 346.906,116.027 345.5,116.5C 345.427,114.973 346.094,113.973 347.5,113.5 Z"/></g>
<g><path style="opacity:0.318" fill="#909090" d="M 152.5,114.5 C 153.906,114.973 154.573,115.973 154.5,117.5C 153.094,117.027 152.427,116.027 152.5,114.5 Z"/></g>
<g><path style="opacity:0.373" fill="#898989" d="M 344.5,117.5 C 344.573,119.027 343.906,120.027 342.5,120.5C 342.427,118.973 343.094,117.973 344.5,117.5 Z"/></g>
<g><path style="opacity:0.502" fill="#797979" d="M 154.5,117.5 C 155.906,117.973 156.573,118.973 156.5,120.5C 155.094,120.027 154.427,119.027 154.5,117.5 Z"/></g>
<g><path style="opacity:0.373" fill="#969696" d="M 341.5,121.5 C 341.446,123.632 340.446,124.965 338.5,125.5C 339.026,123.77 340.026,122.436 341.5,121.5 Z"/></g>
<g><path style="opacity:0.235" fill="#8c8c8c" d="M 158.5,122.5 C 159.401,123.29 160.068,124.29 160.5,125.5C 158.952,125.179 158.285,124.179 158.5,122.5 Z"/></g>
<g><path style="opacity:0.054" fill="#e6e6e6" d="M 361.5,93.5 C 378.992,92.5033 396.659,92.1699 414.5,92.5C 414.833,197.335 414.499,302.001 413.5,406.5C 413.5,406.167 413.5,405.833 413.5,405.5C 413.5,301.5 413.5,197.5 413.5,93.5C 396.167,93.5 378.833,93.5 361.5,93.5 Z"/></g>
<g><path style="opacity:0.133" fill="#bcbcbc" d="M 160.5,125.5 C 161.906,125.973 162.573,126.973 162.5,128.5C 161.094,128.027 160.427,127.027 160.5,125.5 Z"/></g>
<g><path style="opacity:0.404" fill="#9b9b9b" d="M 337.5,127.5 C 337.262,129.404 336.262,130.738 334.5,131.5C 334.738,129.596 335.738,128.262 337.5,127.5 Z"/></g>
<g><path style="opacity:0.224" fill="#aeaeae" d="M 162.5,128.5 C 163.906,128.973 164.573,129.973 164.5,131.5C 163.094,131.027 162.427,130.027 162.5,128.5 Z"/></g>
<g><path style="opacity:0.494" fill="#939393" d="M 164.5,131.5 C 166.262,132.262 167.262,133.596 167.5,135.5C 165.738,134.738 164.738,133.404 164.5,131.5 Z"/></g>
<g><path style="opacity:0.055" fill="#e7e7e7" d="M 137.5,93.5 C 120.167,93.5 102.833,93.5 85.5,93.5C 85.5,197.5 85.5,301.5 85.5,405.5C 85.5,405.833 85.5,406.167 85.5,406.5C 84.5005,302.001 84.1672,197.335 84.5,92.5C 102.341,92.1699 120.008,92.5033 137.5,93.5 Z"/></g>
<g><path style="opacity:0.204" fill="#8a8a8a" d="M 167.5,135.5 C 168.906,135.973 169.573,136.973 169.5,138.5C 168.094,138.027 167.427,137.027 167.5,135.5 Z"/></g>
<g><path style="opacity:0.196" fill="#8f8f8f" d="M 331.5,135.5 C 331.573,137.027 330.906,138.027 329.5,138.5C 329.427,136.973 330.094,135.973 331.5,135.5 Z"/></g>
<g><path style="opacity:0.98" fill="#5d5d5d" d="M 324.5,144.5 C 324.759,146.989 323.759,148.656 321.5,149.5C 322.11,147.566 323.11,145.899 324.5,144.5 Z"/></g>
<g><path style="opacity:0.208" fill="#b4b4b4" d="M 175.5,146.5 C 176.906,146.973 177.573,147.973 177.5,149.5C 176.094,149.027 175.427,148.027 175.5,146.5 Z"/></g>
<g><path style="opacity:0.063" fill="#b0b0b0" d="M 133.5,162.5 C 134.906,162.973 135.573,163.973 135.5,165.5C 134.094,165.027 133.427,164.027 133.5,162.5 Z"/></g>
<g><path style="opacity:0.184" fill="#9b9b9b" d="M 308.5,167.5 C 308.573,169.027 307.906,170.027 306.5,170.5C 306.427,168.973 307.094,167.973 308.5,167.5 Z"/></g>
<g><path style="opacity:0.447" fill="#8a8a8a" d="M 137.5,168.5 C 139.446,169.035 140.446,170.368 140.5,172.5C 139.026,171.564 138.026,170.23 137.5,168.5 Z"/></g>
<g><path style="opacity:0.573" fill="#797979" d="M 306.5,170.5 C 306.573,172.027 305.906,173.027 304.5,173.5C 304.427,171.973 305.094,170.973 306.5,170.5 Z"/></g>
<g><path style="opacity:0.02" fill="#a4a4a4" d="M 361.5,168.5 C 360.974,170.23 359.974,171.564 358.5,172.5C 358.554,170.368 359.554,169.035 361.5,168.5 Z"/></g>
<g><path style="opacity:0.267" fill="#757575" d="M 285.5,199.5 C 285.573,201.027 284.906,202.027 283.5,202.5C 283.427,200.973 284.094,199.973 285.5,199.5 Z"/></g>
<g><path style="opacity:0.341" fill="#7f7f7f" d="M 214.5,200.5 C 215.906,200.973 216.573,201.973 216.5,203.5C 215.094,203.027 214.427,202.027 214.5,200.5 Z"/></g>
<g><path style="opacity:0.992" fill="#070707" d="M 251.5,201.5 C 251.427,203.027 252.094,204.027 253.5,204.5C 264.615,223.682 275.615,243.015 286.5,262.5C 286.427,264.027 287.094,265.027 288.5,265.5C 296.276,277.384 303.276,289.717 309.5,302.5C 309.427,304.027 310.094,305.027 311.5,305.5C 311.5,305.833 311.5,306.167 311.5,306.5C 311.833,307.5 312.5,308.167 313.5,308.5C 316.499,313.828 319.499,319.161 322.5,324.5C 322.427,326.027 323.094,327.027 324.5,327.5C 328.003,332.502 331.003,337.835 333.5,343.5C 333.427,345.027 334.094,346.027 335.5,346.5C 341.803,355.969 347.47,365.802 352.5,376C 339.154,376.833 325.821,376.666 312.5,375.5C 311.37,374.378 310.703,373.044 310.5,371.5C 310.34,369.847 309.674,368.514 308.5,367.5C 307.026,366.564 306.026,365.23 305.5,363.5C 305.715,361.821 305.048,360.821 303.5,360.5C 301.5,357.167 299.5,353.833 297.5,350.5C 297.715,348.821 297.048,347.821 295.5,347.5C 264.493,347.167 233.493,347.5 202.5,348.5C 198.808,354.564 195.141,360.564 191.5,366.5C 189.952,366.821 189.285,367.821 189.5,369.5C 188.513,371.473 187.513,373.473 186.5,375.5C 173.5,376.833 160.5,376.833 147.5,375.5C 151.404,366.686 156.071,358.353 161.5,350.5C 163.822,349.198 165.155,347.198 165.5,344.5C 166.41,341.008 168.076,338.008 170.5,335.5C 172.25,334.341 173.25,332.674 173.5,330.5C 178.324,320.85 183.657,311.517 189.5,302.5C 190.906,302.027 191.573,301.027 191.5,299.5C 191.733,297.938 192.4,296.605 193.5,295.5C 195.104,294.713 195.771,293.38 195.5,291.5C 196.263,289.632 197.263,287.965 198.5,286.5C 199.906,286.027 200.573,285.027 200.5,283.5C 213.835,260.162 227.169,236.829 240.5,213.5C 242.048,213.179 242.715,212.179 242.5,210.5C 244.508,206.478 247.008,202.812 250,199.5C 250.717,200.044 251.217,200.711 251.5,201.5 Z M 252.5,269.5 C 252.932,270.71 253.599,271.71 254.5,272.5C 256.775,277.429 259.441,282.096 262.5,286.5C 262.66,288.153 263.326,289.486 264.5,290.5C 267.895,296.951 271.561,303.284 275.5,309.5C 258.269,310.173 241.103,310.84 224,311.5C 231.566,295.718 240.233,280.385 250,265.5C 251.095,266.693 251.928,268.027 252.5,269.5 Z"/></g>
<g><path style="opacity:0.004" fill="#afafaf" d="M 160.5,200.5 C 162.144,200.81 163.144,201.81 163.5,203.5C 161.856,203.19 160.856,202.19 160.5,200.5 Z"/></g>
<g><path style="opacity:0.09" fill="#808080" d="M 251.5,201.5 C 252.906,201.973 253.573,202.973 253.5,204.5C 252.094,204.027 251.427,203.027 251.5,201.5 Z"/></g>
<g><path style="opacity:0.075" fill="#9d9d9d" d="M 216.5,203.5 C 217.906,203.973 218.573,204.973 218.5,206.5C 217.094,206.027 216.427,205.027 216.5,203.5 Z"/></g>
<g><path style="opacity:0.004" fill="#cecece" d="M 336.5,203.5 C 336.144,205.19 335.144,206.19 333.5,206.5C 333.856,204.81 334.856,203.81 336.5,203.5 Z"/></g>
<g><path style="opacity:0.396" fill="#7b7b7b" d="M 242.5,210.5 C 242.715,212.179 242.048,213.179 240.5,213.5C 240.932,212.29 241.599,211.29 242.5,210.5 Z"/></g>
<g><path style="opacity:0.224" fill="#bfbfbf" d="M 168.5,211.5 C 170.446,212.035 171.446,213.368 171.5,215.5C 170.026,214.564 169.026,213.23 168.5,211.5 Z"/></g>
<g><path style="opacity:0.892" fill="#6e6e6e" d="M 328.5,214.5 C 327.396,216.389 326.063,218.055 324.5,219.5C 325.038,217.883 325.371,216.216 325.5,214.5C 326.5,214.5 327.5,214.5 328.5,214.5 Z"/></g>
<g><path style="opacity:0.259" fill="#969696" d="M 171.5,215.5 C 173.446,216.035 174.446,217.368 174.5,219.5C 173.026,218.564 172.026,217.23 171.5,215.5 Z"/></g>
<g><path style="opacity:0.392" fill="#787878" d="M 184.5,233.5 C 186.144,233.81 187.144,234.81 187.5,236.5C 185.856,236.19 184.856,235.19 184.5,233.5 Z"/></g>
<g><path style="opacity:0.18" fill="#828282" d="M 286.5,262.5 C 287.906,262.973 288.573,263.973 288.5,265.5C 287.094,265.027 286.427,264.027 286.5,262.5 Z"/></g>
<g><path style="opacity:0.027" fill="#8c8c8c" d="M 252.5,269.5 C 254.048,269.821 254.715,270.821 254.5,272.5C 253.599,271.71 252.932,270.71 252.5,269.5 Z"/></g>
<g><path style="opacity:0.071" fill="#a5a5a5" d="M 200.5,283.5 C 200.573,285.027 199.906,286.027 198.5,286.5C 198.427,284.973 199.094,283.973 200.5,283.5 Z"/></g>
<g><path style="opacity:0.137" fill="#949494" d="M 262.5,286.5 C 264.104,287.287 264.771,288.62 264.5,290.5C 263.326,289.486 262.66,288.153 262.5,286.5 Z"/></g>
<g><path style="opacity:0.494" fill="#9e9e9e" d="M 195.5,291.5 C 195.771,293.38 195.104,294.713 193.5,295.5C 193.66,293.847 194.326,292.514 195.5,291.5 Z"/></g>
<g><path style="opacity:0.282" fill="#828282" d="M 191.5,299.5 C 191.573,301.027 190.906,302.027 189.5,302.5C 189.427,300.973 190.094,299.973 191.5,299.5 Z"/></g>
<g><path style="opacity:0.286" fill="#7d7d7d" d="M 309.5,302.5 C 310.906,302.973 311.573,303.973 311.5,305.5C 310.094,305.027 309.427,304.027 309.5,302.5 Z"/></g>
<g><path style="opacity:0.004" fill="#c1c1c1" d="M 311.5,306.5 C 312.833,306.5 313.5,307.167 313.5,308.5C 312.5,308.167 311.833,307.5 311.5,306.5 Z"/></g>
<g><path style="opacity:0.129" fill="#b9b9b9" d="M 322.5,324.5 C 323.906,324.973 324.573,325.973 324.5,327.5C 323.094,327.027 322.427,326.027 322.5,324.5 Z"/></g>
<g><path style="opacity:0.141" fill="#8e8e8e" d="M 173.5,330.5 C 173.25,332.674 172.25,334.341 170.5,335.5C 170.75,333.326 171.75,331.659 173.5,330.5 Z"/></g>
<g><path style="opacity:0.016" fill="#c6c6c6" d="M 413.5,405.5 C 413.5,405.833 413.5,406.167 413.5,406.5C 397.833,406.5 382.167,406.5 366.5,406.5C 366.833,324.998 366.499,243.665 365.5,162.5C 365.783,161.711 366.283,161.044 367,160.5C 367.5,242.166 367.667,323.833 367.5,405.5C 382.833,405.5 398.167,405.5 413.5,405.5 Z"/></g>
<g><path style="opacity:0.612" fill="#7f7f7f" d="M 333.5,343.5 C 334.906,343.973 335.573,344.973 335.5,346.5C 334.094,346.027 333.427,345.027 333.5,343.5 Z"/></g>
<g><path style="opacity:0.196" fill="#949494" d="M 165.5,344.5 C 165.155,347.198 163.822,349.198 161.5,350.5C 162.34,348.147 163.674,346.147 165.5,344.5 Z"/></g>
<g><path style="opacity:0.557" fill="#979797" d="M 295.5,347.5 C 297.048,347.821 297.715,348.821 297.5,350.5C 296.599,349.71 295.932,348.71 295.5,347.5 Z"/></g>
<g><path style="opacity:0.69" fill="#929292" d="M 303.5,360.5 C 305.048,360.821 305.715,361.821 305.5,363.5C 304.599,362.71 303.932,361.71 303.5,360.5 Z"/></g>
<g><path style="opacity:0.278" fill="#7a7a7a" d="M 191.5,366.5 C 191.068,367.71 190.401,368.71 189.5,369.5C 189.285,367.821 189.952,366.821 191.5,366.5 Z"/></g>
<g><path style="opacity:0.153" fill="#8b8b8b" d="M 308.5,367.5 C 309.674,368.514 310.34,369.847 310.5,371.5C 308.896,370.713 308.229,369.38 308.5,367.5 Z"/></g>
<g><path style="opacity:0.048" fill="#d3d3d3" d="M 133.5,162.5 C 132.501,243.665 132.167,324.998 132.5,406.5C 116.833,406.5 101.167,406.5 85.5,406.5C 85.5,406.167 85.5,405.833 85.5,405.5C 100.833,405.5 116.167,405.5 131.5,405.5C 131.333,323.833 131.5,242.166 132,160.5C 132.717,161.044 133.217,161.711 133.5,162.5 Z"/></g>
</svg>
